<svg width="791" height="300" xmlns="http://www.w3.org/2000/svg">
 <defs>
  <style>.cls-1{fill:#171617;}.cls-2{fill:#f9f9f9;}.cls-3{fill:#fbfbfb;}.cls-4{fill:#161516;}.cls-5{fill:#ac2225;}.cls-6{fill:#f8f8f8;}.cls-7{fill:#f5f5f5;}.cls-8{font-size:29.16px;font-family:Montserrat-Regular, Montserrat;}.cls-9{letter-spacing:0em;}.cls-10{letter-spacing:-0.01em;}</style>
 </defs>
 <title>Artboard 1</title>
 <g>
  <title>background</title>
  <rect fill="none" id="canvas_background" height="302" width="793" y="-1" x="-1"/>
 </g>
 <g>
  <title>Layer 1</title>
  <g stroke="null" id="svg_18">
   <path stroke="null" id="svg_1" d="m789.439101,224.936666c-3.299348,11.137862 -6.076129,22.429421 -12.623594,32.347959c-16.066392,24.273777 -38.249899,38.782713 -67.400974,40.227459c-25.144723,1.229571 -50.381664,0.553307 -75.57762,0.553307q-270.864205,0 -541.738656,0.122957c-26.282076,0 -48.701251,-8.012703 -67.175552,-26.712426c-16.711917,-16.906599 -24.284024,-37.553142 -24.355749,-61.068684q-0.163943,-59.839113 0,-119.688473c0.215175,-46.49827 32.204509,-82.155823 78.538836,-87.78111a157.118658,157.118658 0 0 1 18.812434,-1.147599q299.605423,-0.081971 599.221092,0c41.631219,0 75.823534,23.279874 88.395895,59.429256c1.618935,4.662123 0.891439,9.887799 3.842409,14.119572c1.024642,2.254213 0.563553,4.64163 0.563553,6.967568c0.061479,46.272848 -0.061479,92.53545 0.122957,138.808299a8.934881,8.934881 0 0 1 -0.625032,3.821916z" class="cls-1"/>
   <path stroke="null" id="svg_2" d="m788.414458,224.936666q0,-74.798891 0,-149.597783c2.438649,2.705056 1.362774,6.014651 1.373021,9.047592c0.081971,37.512156 0,75.034559 0.081971,112.546716c0,8.320096 0.389364,16.650438 0.645525,24.970534c-0.051232,1.588196 -0.983657,2.325938 -2.100517,3.032941z" class="cls-2"/>
   <path stroke="null" id="svg_3" d="m393.845183,290.062934q-151.944214,0 -303.898674,0c-32.686091,0 -57.379972,-13.965875 -73.405378,-42.584136a60.033795,60.033795 0 0 1 -7.930732,-29.233046c-0.194682,-44.059621 -0.666018,-88.18072 -0.081971,-132.260834c0.553307,-41.71319 35.114493,-75.126777 77.104337,-75.178009q191.710583,-0.215175 383.41092,-0.061479c76.848176,0 153.78857,0.563553 230.677732,-0.215175c41.825901,-0.43035 81.971388,33.516051 80.741817,80.997978q-1.577949,58.609542 0,117.29081c1.280803,45.955209 -36.005932,81.59227 -81.16192,81.377095c-91.059965,-0.440596 -182.130177,-0.133204 -273.190143,-0.133204l-32.265988,0z" class="cls-3"/>
   <path stroke="null" id="svg_4" d="m395.453871,274.662559q-153.143045,0 -306.286091,0.081971c-22.859771,0 -41.446783,-7.654078 -54.459741,-26.866122a55.433151,55.433151 0 0 1 -9.611145,-31.763913c0,-43.567793 -0.092218,-87.0946 0,-130.703378c0.102464,-33.464819 25.718523,-59.080878 59.296053,-59.111617q149.987147,-0.163943 299.98454,0c106.02999,0 212.100966,0.594293 318.089971,-0.348378c32.891019,-0.297146 64.152857,24.591416 63.312651,63.845465c-0.870946,40.924215 -0.184436,81.87917 -0.194682,122.823878c0,36.128889 -24.591416,61.335091 -60.740798,62.021601c-17.050049,0.327886 -34.12059,0.092218 -51.180885,0.092218l-258.209872,-0.071725z" class="cls-4"/>
   <path stroke="null" id="svg_5" d="m267.168649,148.242186c1.414006,54.306044 -46.037181,99.093162 -98.744783,99.082915c-51.980106,0 -98.877987,-44.059621 -98.837001,-99.277597c0,-52.25676 44.448985,-98.365665 98.703797,-98.58084c54.09087,-0.204928 100.291993,45.658063 98.877987,98.775522z" class="cls-5"/>
   <path stroke="null" id="svg_6" d="m372.409665,192.230082c0.71725,-9.723856 -1.557456,-21.353547 1.864849,-32.655352c7.315946,-24.171313 36.262093,-31.763913 54.736394,-14.457704c1.680413,1.577949 2.643577,4.621137 5.973665,1.26031c10.912441,-11.014905 24.120081,-13.484293 38.178174,-7.602846s19.201798,18.218141 19.857569,32.235248c0.768482,16.486495 0.225421,33.024223 0.297146,49.551704c0,7.951225 -4.846558,4.170294 -8.084428,4.918283s-7.70531,0.512321 -7.572107,-5.18469q0.54306,-23.976631 0,-47.984001c-0.307393,-15.369635 -11.342791,-24.068849 -24.704127,-19.960033c-7.920485,2.438649 -12.367433,9.457449 -12.480144,20.492847c-0.153696,15.472099 -0.399611,30.954445 0.122957,46.406052c0.215175,6.270811 -2.961216,6.147854 -7.111018,5.737997c-3.821916,-0.399611 -9.13981,2.418156 -8.873403,-5.676519c0.512321,-15.718014 0.256161,-31.45652 0.102464,-47.195027c-0.122957,-12.736304 -7.479889,-20.871965 -18.443562,-20.851472s-18.238634,8.197139 -18.310359,20.964182c-0.081971,15.472099 -0.471335,30.954445 0.174189,46.406052c0.307393,7.295454 -3.66822,6.260565 -8.13566,6.465493c-4.979762,0.215175 -8.402067,0.102464 -7.777035,-6.752393c0.758235,-8.074182 0.184436,-16.250828 0.184436,-26.118133z" class="cls-2"/>
   <path stroke="null" id="svg_7" d="m333.094138,159.636209c-12.480144,-12.797783 -30.565081,-11.271066 -40.30943,2.868999c-7.172496,10.40012 -6.865104,27.665343 0.614785,37.747824c7.008554,9.467695 16.640192,12.736304 27.665343,10.379627c10.697266,-2.284952 16.568467,-10.246423 19.806337,-20.308411c0.727496,-2.26446 -0.512321,-6.147854 3.299348,-6.035143a60.648581,60.648581 0 0 1 13.053944,2.223474c1.26031,0.317639 0.676264,2.284952 0.368871,3.52477c-5.225676,21.445764 -21.609707,38.639263 -45.770774,36.887125c-21.999071,-1.629181 -39.868834,-20.400629 -40.278691,-42.666107c-0.481582,-26.025916 13.402322,-43.721489 37.758071,-48.15819c17.039802,-3.073927 37.655606,8.412314 44.489971,24.355749c1.567703,3.647727 -0.778728,3.914134 -2.674317,5.000255c-16.107378,9.221781 -32.306973,18.197648 -48.270901,27.665343c-4.692862,2.766534 -6.147854,0 -7.244221,-3.23787c-1.024642,-2.889491 -6.496232,-5.697011 0.194682,-9.221781c12.531376,-6.526972 24.622156,-13.822425 37.296981,-21.025661z" class="cls-2"/>
   <path stroke="null" id="svg_8" d="m569.335678,159.71818c-10.728005,-11.742401 -26.640701,-11.814126 -37.040821,-0.747989c-12.295708,13.012958 -11.178848,34.776361 2.284952,46.49827c14.242529,12.398172 36.333818,4.89779 42.450932,-14.426964c0.758235,-2.397663 0.235668,-6.414261 2.95097,-6.61919c4.303498,-0.327886 8.801678,0.788975 13.094929,1.813617c1.94682,0.461089 1.024642,2.582099 0.707003,4.098569c-4.293251,23.259381 -24.140574,38.444581 -47.461434,36.313325c-21.353547,-1.94682 -38.342117,-21.517489 -38.506059,-44.305535c-0.266407,-36.128889 34.499708,-57.738596 65.228732,-40.59633c7.654078,4.272759 12.295708,11.158355 16.742656,18.300112c1.83411,2.920231 0.43035,3.92438 -1.936574,5.256415q-24.591416,13.832672 -49.008644,27.911258c-3.422305,1.97756 -5.604794,1.250064 -6.147854,-2.305445c-0.54306,-3.258363 -7.541368,-6.147854 -0.553307,-10.051741c12.264969,-6.854857 24.468459,-13.914643 37.194517,-21.138372z" class="cls-2"/>
   <path stroke="null" id="svg_9" d="m608.671698,193.920742c0.819714,-8.70946 -1.229571,-19.201798 1.393514,-29.601917c4.600644,-18.269373 18.310359,-29.315018 36.108396,-28.597768c19.150565,0.768482 32.552887,13.320351 34.950551,32.696337c2.161995,17.511138 0.809467,35.094 0.881192,52.635877c0,7.172496 -6.219579,3.073927 -9.57016,3.81167c-2.930477,0.68651 -6.147854,0.963164 -6.024897,-4.262512c0.297146,-15.205692 0.368871,-30.421631 0,-45.627324c-0.399611,-16.968077 -12.387926,-26.784151 -27.071051,-22.706074c-8.760692,2.438649 -14.918793,10.54357 -15.04175,20.615804c-0.194682,15.472099 -0.450843,30.954445 0.092218,46.416298c0.256161,7.254468 -4.098569,5.666272 -8.02295,5.666272s-8.504531,1.485731 -7.859007,-5.768736c0.696757,-7.756543 0.163943,-15.707767 0.163943,-25.277927z" class="cls-2"/>
   <path stroke="null" id="svg_10" d="m717.294033,181.799223c0,12.295708 -0.420103,24.693881 0.174189,36.999835c0.317639,6.455247 -2.766534,6.670422 -7.428657,6.240072c-4.016598,-0.368871 -8.719706,1.875095 -8.56601,-5.963418c0.502075,-25.185709 0.450843,-50.402157 0,-75.587866c-0.112711,-6.916336 3.657973,-6.147854 7.899993,-6.004404c3.934627,0.122957 8.391821,-1.526717 8.063935,5.737997c-0.563553,12.838769 -0.14345,25.718523 -0.14345,38.577784z" class="cls-6"/>
   <path stroke="null" id="svg_11" d="m718.810504,114.777367a10.338641,10.338641 0 0 1 -10.646034,10.891948c-6.065883,0.061479 -11.322298,-4.805573 -11.055891,-10.65628c0.297146,-6.465493 4.416209,-9.898045 10.40012,-10.707513c5.625286,-0.768482 11.168602,4.672369 11.301805,10.471845z" class="cls-7"/>
   <path stroke="null" id="svg_12" d="m209.932128,135.45465c10.246423,0 20.492847,0.112711 30.73927,0c3.565755,-0.051232 5.235922,0.952917 5.266662,4.836312c0.338132,40.124994 -21.517489,73.927945 -61.191641,81.899663c-41.784915,8.402067 -84.522747,-22.234739 -89.523002,-64.378279c-6.977814,-58.773485 43.772721,-101.890435 100.589139,-85.280983c12.828522,3.750191 23.279874,11.732155 33.14718,20.492847c2.336185,2.049285 1.97756,3.483784 0.092218,5.789229c-8.986113,10.984166 -8.904142,11.055891 -20.113729,2.366924c-32.450423,-25.15497 -74.911602,-14.744603 -90.04557,22.142521c-9.39597,22.870017 -1.916081,53.342881 16.886106,68.835473c17.941488,14.785589 43.680503,16.681177 63.107722,4.375223c13.566265,-8.596749 21.435518,-21.005168 24.273777,-36.887125c0.840207,-4.723601 -0.676264,-5.276908 -4.621137,-5.235922c-12.849015,0.133204 -25.708277,-0.174189 -38.557292,0.092218c-4.64163,0.092218 -6.322043,-0.952917 -6.291304,-6.014651c0.092218,-13.023204 -0.194682,-13.023204 12.644087,-13.043697q11.793633,-0.010246 23.597513,0.010246z" class="cls-2"/>
  </g>
 </g>
</svg>